# xmcd CD database file
#
# Track frame offsets:
#	150
#	14624
#	27370
#	43644
#	55227
#	69770
#	85402
#	100936
#	111484
#	126539
#
# Disc length: 1883 seconds
#
# Revision: 2
# Processed by: cddbd v1.5.2PL0 Copyright (c) Steve Scherf et al.
# Submitted via: CDex 1.70beta2
#
DISCID=8a07590a
DTITLE=Tom Lüneburger - Good Intentions
DYEAR=2009
DGENRE=Singer Songwriter
TTITLE0=Good Intentions
TTITLE1=Picture
TTITLE2=Station to Station
TTITLE3=Yesterday´s gone
TTITLE4=This Year
TTITLE5=Cunning Person
TTITLE6=On Track
TTITLE7=Travelling Years
TTITLE8=Finally wrong
TTITLE9=Fade
EXTD=YEAR: 2009
EXTT0=
EXTT1=
EXTT2=
EXTT3=
EXTT4=
EXTT5=
EXTT6=
EXTT7=
EXTT8=
EXTT9=
PLAYORDER=
